<?xml version="1.0" standalone="no"?>
<!DOCTYPE svg PUBLIC "-//W3C//DTD SVG 20010904//EN"
 "http://www.w3.org/TR/2001/REC-SVG-20010904/DTD/svg10.dtd">
<svg version="1.0" xmlns="http://www.w3.org/2000/svg"
 width="500.000000pt" height="500.000000pt" viewBox="0 0 500.000000 500.000000"
 preserveAspectRatio="xMidYMid meet">
<metadata>
Created by potrace 1.14, written by Peter Selinger 2001-2017
</metadata>
<g transform="translate(0.000000,500.000000) scale(0.100000,-0.100000)"
fill="#000000" stroke="none">
<path d="M1745 3726 c-2 -12 -7 -48 -11 -81 -3 -33 -7 -71 -9 -85 -1 -14 -6
-56 -10 -95 -3 -38 -8 -77 -10 -85 -2 -8 -7 -46 -10 -85 -4 -38 -8 -77 -10
-85 -2 -8 -7 -44 -10 -80 -3 -36 -8 -76 -10 -90 -3 -14 -7 -50 -10 -80 -3 -30
-12 -107 -20 -170 -8 -63 -17 -139 -20 -167 l-6 -53 65 0 c46 0 66 4 67 13 1
6 3 21 4 32 8 66 22 223 30 335 7 104 25 283 29 287 0 1 71 -149 156 -333
l154 -334 116 1 116 1 84 204 c46 112 87 201 91 197 4 -5 40 -91 80 -193 40
-102 77 -190 81 -197 7 -8 49 -11 140 -10 l131 2 111 245 c61 135 126 279 145
320 19 41 35 77 36 80 0 3 5 16 9 29 13 39 24 7 31 -94 4 -50 8 -101 10 -115
2 -14 7 -65 11 -115 3 -49 7 -97 9 -106 2 -8 6 -55 10 -105 4 -49 9 -96 11
-104 1 -8 3 -21 3 -27 1 -10 27 -13 97 -13 l96 0 -6 73 c-3 39 -8 83 -10 97
-5 26 -8 49 -26 205 -6 50 -13 106 -15 125 -3 19 -7 55 -10 80 -2 25 -7 64
-10 88 -8 63 -13 111 -20 167 -3 28 -10 84 -15 125 -5 41 -12 100 -15 130 -11
99 -24 115 -49 58 -7 -18 -27 -62 -44 -98 -17 -36 -71 -156 -121 -268 -50
-111 -95 -210 -100 -220 -14 -27 -71 -152 -71 -157 0 -3 -17 -40 -99 -220 -16
-33 -34 -75 -41 -92 -7 -18 -15 -33 -19 -33 -3 0 -57 118 -120 263 -63 144
-128 291 -144 327 -16 36 -33 75 -38 88 -9 24 -28 30 -33 10 -14 -51 -54 -164
-79 -218 -31 -70 -49 -112 -52 -120 -1 -3 -14 -32 -29 -65 -15 -33 -44 -97
-63 -142 -20 -46 -37 -82 -39 -80 -1 1 -48 101 -104 222 -139 301 -142 306
-199 428 -28 60 -51 110 -51 112 0 2 -29 65 -65 140 -36 75 -65 140 -65 144 0
18 -31 6 -35 -13z"/>
<path d="M1819 2471 c-5 -30 -3 -145 3 -154 8 -12 12 3 9 31 -1 7 11 12 31 12
65 0 104 54 67 91 -10 10 -29 19 -41 20 -13 0 -33 2 -45 3 -13 2 -23 0 -24 -3z
m103 -33 c10 -17 10 -21 -4 -41 -14 -18 -59 -29 -74 -19 -9 6 -11 44 -6 76 3
13 74 -1 84 -16z"/>
<path d="M2063 2472 c-13 -2 -32 -15 -43 -29 -65 -82 46 -180 124 -108 62 57
7 150 -81 137z m72 -38 c20 -21 22 -30 14 -57 -5 -18 -9 -33 -9 -33 0 -1 -12
-6 -27 -11 -38 -13 -72 -3 -87 26 -39 72 53 136 109 75z"/>
<path d="M2247 2469 c-8 -5 -12 -32 -12 -81 l0 -73 57 0 c47 0 60 4 77 24 28
33 27 76 -4 106 -13 14 -30 25 -37 26 -7 0 -25 2 -41 3 -15 1 -33 -1 -40 -5z
m108 -29 c20 -16 19 -75 -1 -94 -17 -17 -17 -17 -66 -19 l-33 -1 -1 60 c-1 32
1 62 3 66 6 11 82 2 98 -12z"/>
<path d="M2520 2471 c-34 -8 -55 -22 -67 -46 -35 -69 60 -147 123 -100 22 17
15 19 -20 5 -82 -31 -130 86 -51 122 19 8 31 8 50 0 13 -6 27 -8 29 -3 8 13
-36 28 -64 22z"/>
<path d="M2859 2459 c-28 -28 -11 -60 39 -77 30 -10 42 -19 42 -33 0 -10 -7
-20 -15 -20 -8 -1 -21 -2 -27 -3 -7 -1 -23 1 -35 6 -26 8 -32 -6 -7 -16 29
-11 72 -6 88 10 30 29 16 56 -36 69 -34 9 -50 28 -42 50 6 14 14 16 48 11 30
-5 38 -4 30 4 -20 20 -65 19 -85 -1z"/>
<path d="M3007 2468 c-7 -4 3 -8 21 -8 28 0 33 -3 32 -22 -5 -54 1 -128 9
-128 5 0 8 28 7 63 -3 77 0 87 30 87 13 0 24 3 24 8 0 9 -108 9 -123 0z"/>
<path d="M3214 2470 c-50 -20 -43 -74 10 -84 40 -8 65 -31 49 -47 -14 -14 -44
-18 -70 -8 -14 5 -23 5 -23 -1 0 -18 69 -23 94 -6 35 23 23 52 -29 72 -24 9
-46 22 -49 29 -8 23 21 38 61 32 20 -4 32 -2 27 2 -16 15 -48 20 -70 11z"/>
<path d="M2670 2398 c-18 -40 -35 -76 -37 -80 -2 -5 1 -8 7 -8 6 0 14 10 19
23 8 19 16 23 52 21 32 -1 47 -7 57 -23 31 -46 29 -17 -4 49 -19 39 -34 75
-34 80 0 6 -6 10 -13 10 -8 0 -28 -33 -47 -72z m77 -24 c-3 -3 -39 -6 -59 -5
-15 1 -15 5 4 41 l22 40 18 -36 c10 -21 17 -38 15 -40z"/>
<path d="M1569 2208 c-1 -2 -3 -12 -4 -23 -4 -32 -15 -124 -26 -215 -13 -111
-32 -162 -76 -200 -42 -38 -71 -49 -138 -57 -27 -2 -52 -6 -54 -8 -16 -16 43
-20 273 -20 146 0 266 -3 266 -6 0 -8 -58 -137 -97 -216 -47 -94 -137 -160
-225 -165 -47 -3 -59 -10 -38 -23 8 -5 434 -9 548 -6 35 1 27 28 -9 29 -60 2
-113 58 -111 118 1 28 133 364 232 589 9 22 28 67 41 100 12 33 27 64 31 70
22 26 7 35 -62 35 l-70 0 -21 -47 c-12 -27 -34 -76 -50 -111 -16 -35 -29 -65
-29 -67 0 -2 -18 -42 -40 -89 -22 -47 -49 -108 -61 -136 -19 -44 -25 -50 -51
-50 -39 0 -81 23 -103 56 -15 23 -16 41 -11 133 4 58 9 120 10 136 2 17 7 62
10 100 l8 71 -71 2 c-39 1 -72 1 -72 0z"/>
<path d="M2314 2138 c18 -40 67 -148 109 -239 43 -91 77 -168 77 -171 0 -3 10
-24 23 -46 30 -53 43 -44 66 44 21 79 107 290 161 395 5 9 16 33 24 53 l15 37
-58 -2 -59 -2 -44 -98 c-23 -54 -45 -99 -48 -99 -3 0 -24 45 -48 99 l-44 99
-104 1 -104 1 34 -72z"/>
<path d="M2833 2197 c140 -354 222 -559 233 -584 68 -153 80 -223 44 -273 -21
-30 -79 -54 -106 -43 -8 3 -14 -1 -14 -11 0 -10 9 -16 23 -17 112 -3 620 1
625 5 10 10 -7 19 -45 23 -55 5 -137 48 -174 91 -18 20 -50 75 -71 122 -22 47
-47 103 -58 125 -10 22 -17 42 -15 45 2 3 136 5 299 5 232 0 296 2 296 12 0 7
-8 13 -17 14 -54 1 -96 10 -124 25 -80 41 -108 97 -123 244 -3 30 -9 75 -12
100 -4 25 -8 56 -9 70 -1 14 -3 32 -3 41 -2 15 -17 17 -107 17 l-105 0 5 -67
c3 -36 8 -82 10 -101 2 -19 7 -75 11 -125 3 -49 6 -92 7 -95 1 -3 -4 -20 -10
-37 -14 -40 -67 -74 -107 -71 -29 3 -34 12 -137 248 l-107 245 -107 2 c-79 1
-105 -1 -102 -10z"/>
</g>
</svg>
