<?xml version="1.0" standalone="no"?>
<!DOCTYPE svg PUBLIC "-//W3C//DTD SVG 20010904//EN"
 "http://www.w3.org/TR/2001/REC-SVG-20010904/DTD/svg10.dtd">
<svg version="1.0" xmlns="http://www.w3.org/2000/svg"
 width="500.000000pt" height="500.000000pt" viewBox="0 0 500.000000 500.000000"
 preserveAspectRatio="xMidYMid meet">
<metadata>
Created by potrace 1.14, written by Peter Selinger 2001-2017
</metadata>
<g transform="translate(0.000000,500.000000) scale(0.100000,-0.100000)"
fill="#000000" stroke="none">
<path d="M1745 3718 c-2 -13 -32 -259 -65 -548 -33 -289 -63 -542 -66 -562
l-6 -38 66 0 65 0 5 43 c3 23 17 172 31 331 14 159 26 291 28 292 1 2 72 -148
157 -332 l155 -335 115 3 115 3 84 202 c47 111 87 200 90 197 4 -3 42 -94 86
-202 l80 -197 134 0 134 0 156 347 c86 192 158 348 161 348 3 0 18 -145 34
-322 15 -178 30 -335 32 -350 l6 -28 94 0 94 0 -1 28 c0 15 -30 277 -67 582
-54 449 -70 555 -82 557 -11 2 -46 -67 -124 -240 -252 -564 -391 -867 -397
-867 -4 0 -15 21 -26 48 -86 205 -287 652 -295 652 -5 0 -10 -6 -12 -12 -29
-100 -63 -187 -152 -386 -58 -130 -107 -238 -109 -240 -1 -1 -111 234 -245
523 -142 307 -249 525 -256 525 -8 0 -16 -10 -19 -22z"/>
<path d="M1847 2483 c-11 -11 -8 -153 3 -153 6 0 10 11 10 25 0 21 5 25 31 25
17 0 39 5 50 10 27 15 25 64 -3 84 -23 16 -79 22 -91 9z m91 -25 c30 -30 1
-68 -52 -68 -24 0 -26 4 -26 40 0 39 1 40 33 40 18 0 38 -5 45 -12z"/>
<path d="M2065 2478 c-51 -30 -60 -84 -20 -123 30 -31 73 -32 109 -4 50 39 26
123 -39 134 -16 3 -39 0 -50 -7z m91 -34 c22 -33 10 -72 -29 -94 -24 -13 -30
-13 -54 0 -34 19 -44 78 -18 104 26 26 81 21 101 -10z"/>
<path d="M2250 2411 l0 -81 44 0 c61 0 96 29 96 79 0 49 -24 70 -89 78 l-51 6
0 -82z m114 37 c35 -50 5 -100 -61 -102 l-38 -1 -3 63 -3 62 45 0 c35 0 48 -5
60 -22z"/>
<path d="M2493 2480 c-49 -20 -59 -96 -17 -129 35 -27 104 -27 104 0 0 6 -8 5
-19 -1 -30 -16 -50 -12 -76 15 -31 30 -32 58 -4 86 17 17 29 20 63 16 37 -5
39 -4 22 9 -22 16 -41 17 -73 4z"/>
<path d="M2665 2413 c-20 -42 -33 -78 -31 -80 2 -3 9 5 16 16 8 16 20 21 55
21 35 0 47 -5 55 -21 7 -11 14 -19 16 -16 6 5 -63 157 -71 157 -3 0 -21 -34
-40 -77z m69 -10 c7 -21 4 -23 -28 -23 -20 0 -36 2 -36 5 0 2 7 23 17 46 16
41 16 41 28 18 7 -13 16 -34 19 -46z"/>
<path d="M2846 2477 c-32 -23 -17 -59 32 -75 30 -10 42 -19 42 -33 0 -23 -40
-35 -69 -19 -14 7 -21 7 -21 1 0 -14 45 -24 74 -17 45 11 42 76 -4 76 -10 0
-28 8 -40 18 -32 26 -17 45 31 40 42 -4 53 6 17 16 -33 8 -42 7 -62 -7z"/>
<path d="M2980 2480 c0 -5 13 -10 30 -10 29 0 29 -1 33 -62 l3 -63 2 63 2 62
31 0 c17 0 28 4 24 10 -3 6 -33 10 -66 10 -33 0 -59 -4 -59 -10z"/>
<path d="M3178 2483 c-29 -7 -34 -44 -8 -65 12 -10 30 -18 40 -18 28 0 45 -27
30 -45 -14 -17 -43 -19 -71 -5 -13 7 -19 7 -19 1 0 -28 87 -26 104 2 15 24 -2
48 -45 62 -23 8 -35 19 -37 34 -3 22 -1 23 37 19 41 -4 55 5 25 16 -17 6 -29
6 -56 -1z"/>
<path d="M1565 2178 c-3 -18 -12 -91 -20 -163 -19 -158 -28 -190 -69 -233 -43
-46 -75 -61 -146 -69 -132 -13 -46 -23 210 -23 149 0 270 -3 270 -7 0 -5 -23
-62 -52 -128 -43 -99 -62 -130 -108 -176 -54 -55 -85 -71 -162 -84 -21 -3 -38
-10 -38 -15 0 -6 111 -10 285 -10 181 0 285 4 285 10 0 5 -18 13 -40 16 -29 5
-49 17 -71 42 -51 57 -44 85 130 500 83 200 151 365 151 368 0 3 -32 4 -71 2
l-70 -3 -111 -249 -112 -248 -45 5 c-34 4 -52 13 -73 36 -37 41 -37 58 -3 404
l6 57 -70 0 -70 0 -6 -32z"/>
<path d="M2307 2153 c178 -388 232 -498 246 -501 10 -2 17 7 22 30 16 71 50
161 126 330 43 98 79 182 79 188 0 5 -24 10 -53 10 l-53 0 -44 -99 c-24 -55
-47 -98 -51 -96 -3 3 -26 47 -49 100 l-44 95 -102 0 -103 0 26 -57z"/>
<path d="M2833 2198 c2 -7 69 -173 147 -368 78 -195 146 -368 151 -384 12 -40
-6 -100 -36 -124 -13 -11 -42 -22 -65 -26 -22 -3 -40 -11 -40 -16 0 -6 118
-10 325 -10 196 0 325 4 325 9 0 6 -21 13 -47 17 -96 14 -178 74 -222 162 -22
43 -101 223 -101 229 0 2 135 3 300 3 165 0 300 4 300 9 0 4 -24 11 -54 14
-88 9 -145 45 -180 114 -12 24 -56 315 -56 372 0 7 -37 11 -106 11 l-105 0 5
-52 c13 -114 26 -276 26 -325 0 -44 -5 -58 -28 -84 -23 -26 -37 -32 -72 -33
l-44 -1 -108 245 -107 245 -107 3 c-83 2 -105 0 -101 -10z"/>
</g>
</svg>
